<mxfile host="Electron" modified="2024-02-29T01:30:18.631Z" agent="Mozilla/5.0 (Windows NT 10.0; Win64; x64) AppleWebKit/537.36 (KHTML, like Gecko) draw.io/23.1.5 Chrome/120.0.6099.109 Electron/28.1.0 Safari/537.36" etag="EcBD_zkZJg7hwqxUhYDl" version="23.1.5" type="device">
  <diagram name="Page-1" id="XF4YVyJMiuxY0o5n74Ig">
    <mxGraphModel dx="1381" dy="872" grid="1" gridSize="10" guides="1" tooltips="1" connect="1" arrows="1" fold="1" page="1" pageScale="1" pageWidth="850" pageHeight="1100" math="0" shadow="0">
      <root>
        <mxCell id="0" />
        <mxCell id="1" parent="0" />
        <mxCell id="9dfdfNf_DVW52LMWAm_0-4" value="" style="rounded=0;whiteSpace=wrap;html=1;" vertex="1" parent="1">
          <mxGeometry x="830" y="590" width="260" height="690" as="geometry" />
        </mxCell>
        <mxCell id="9dfdfNf_DVW52LMWAm_0-5" value="&lt;font style=&quot;font-size: 18px;&quot;&gt;User&lt;/font&gt;" style="shape=umlActor;verticalLabelPosition=bottom;verticalAlign=top;html=1;outlineConnect=0;" vertex="1" parent="1">
          <mxGeometry x="600" y="720" width="50" height="80" as="geometry" />
        </mxCell>
        <mxCell id="9dfdfNf_DVW52LMWAm_0-6" value="&lt;font size=&quot;3&quot;&gt;Admin&lt;/font&gt;" style="shape=umlActor;verticalLabelPosition=bottom;verticalAlign=top;html=1;outlineConnect=0;" vertex="1" parent="1">
          <mxGeometry x="1290" y="880" width="50" height="80" as="geometry" />
        </mxCell>
        <mxCell id="9dfdfNf_DVW52LMWAm_0-7" value="&lt;font style=&quot;font-size: 18px;&quot;&gt;Bank&lt;/font&gt;" style="shape=umlActor;verticalLabelPosition=bottom;verticalAlign=top;html=1;outlineConnect=0;" vertex="1" parent="1">
          <mxGeometry x="600" y="1040" width="50" height="80" as="geometry" />
        </mxCell>
        <mxCell id="9dfdfNf_DVW52LMWAm_0-20" value="&lt;font style=&quot;font-size: 14px;&quot;&gt;Register&lt;/font&gt;" style="ellipse;whiteSpace=wrap;html=1;" vertex="1" parent="1">
          <mxGeometry x="900" y="610" width="120" height="50" as="geometry" />
        </mxCell>
        <mxCell id="9dfdfNf_DVW52LMWAm_0-22" value="&lt;font style=&quot;font-size: 14px;&quot;&gt;Login&lt;/font&gt;" style="ellipse;whiteSpace=wrap;html=1;" vertex="1" parent="1">
          <mxGeometry x="900" y="920" width="120" height="50" as="geometry" />
        </mxCell>
        <mxCell id="9dfdfNf_DVW52LMWAm_0-23" value="&lt;span style=&quot;font-size: 14px;&quot;&gt;Track Bank&lt;br&gt;Interest&lt;br&gt;&lt;/span&gt;" style="ellipse;whiteSpace=wrap;html=1;" vertex="1" parent="1">
          <mxGeometry x="900" y="670" width="120" height="50" as="geometry" />
        </mxCell>
        <mxCell id="9dfdfNf_DVW52LMWAm_0-24" value="&lt;span style=&quot;font-size: 14px;&quot;&gt;Calculate&lt;br&gt;Bank Interest&lt;br&gt;&lt;/span&gt;" style="ellipse;whiteSpace=wrap;html=1;" vertex="1" parent="1">
          <mxGeometry x="900" y="735" width="120" height="50" as="geometry" />
        </mxCell>
        <mxCell id="9dfdfNf_DVW52LMWAm_0-25" value="&lt;font style=&quot;font-size: 14px;&quot;&gt;View Interest&lt;br&gt;History&lt;br&gt;&lt;/font&gt;" style="ellipse;whiteSpace=wrap;html=1;" vertex="1" parent="1">
          <mxGeometry x="900" y="800" width="120" height="50" as="geometry" />
        </mxCell>
        <mxCell id="9dfdfNf_DVW52LMWAm_0-26" value="&lt;span style=&quot;font-size: 14px;&quot;&gt;Edit Bank&lt;br&gt;Interest Rate&lt;br&gt;&lt;/span&gt;" style="ellipse;whiteSpace=wrap;html=1;" vertex="1" parent="1">
          <mxGeometry x="900" y="980" width="120" height="50" as="geometry" />
        </mxCell>
        <mxCell id="9dfdfNf_DVW52LMWAm_0-27" value="&lt;span style=&quot;font-size: 14px;&quot;&gt;View Request&lt;br&gt;History&lt;br&gt;&lt;/span&gt;" style="ellipse;whiteSpace=wrap;html=1;" vertex="1" parent="1">
          <mxGeometry x="900" y="1040" width="120" height="50" as="geometry" />
        </mxCell>
        <mxCell id="9dfdfNf_DVW52LMWAm_0-28" value="&lt;span style=&quot;font-size: 14px;&quot;&gt;Add Bank&lt;br&gt;Detail&lt;br&gt;&lt;/span&gt;" style="ellipse;whiteSpace=wrap;html=1;" vertex="1" parent="1">
          <mxGeometry x="900" y="1100" width="120" height="50" as="geometry" />
        </mxCell>
        <mxCell id="9dfdfNf_DVW52LMWAm_0-29" value="&lt;span style=&quot;font-size: 14px;&quot;&gt;Manage Bank&lt;br&gt;Interest Rate&lt;br&gt;&lt;/span&gt;" style="ellipse;whiteSpace=wrap;html=1;" vertex="1" parent="1">
          <mxGeometry x="900" y="1160" width="120" height="50" as="geometry" />
        </mxCell>
        <mxCell id="9dfdfNf_DVW52LMWAm_0-30" value="&lt;span style=&quot;font-size: 14px;&quot;&gt;Delete Bank&lt;br&gt;Detail&lt;br&gt;&lt;/span&gt;" style="ellipse;whiteSpace=wrap;html=1;" vertex="1" parent="1">
          <mxGeometry x="900" y="1220" width="120" height="50" as="geometry" />
        </mxCell>
        <mxCell id="9dfdfNf_DVW52LMWAm_0-31" value="&lt;span style=&quot;font-size: 14px;&quot;&gt;View Bank&lt;br&gt;Interest Rate&lt;br&gt;&lt;/span&gt;" style="ellipse;whiteSpace=wrap;html=1;" vertex="1" parent="1">
          <mxGeometry x="900" y="860" width="120" height="50" as="geometry" />
        </mxCell>
        <mxCell id="9dfdfNf_DVW52LMWAm_0-32" value="" style="endArrow=none;html=1;rounded=0;entryX=0;entryY=0.5;entryDx=0;entryDy=0;exitX=1;exitY=0.3333333333333333;exitDx=0;exitDy=0;exitPerimeter=0;" edge="1" parent="1" source="9dfdfNf_DVW52LMWAm_0-5" target="9dfdfNf_DVW52LMWAm_0-20">
          <mxGeometry width="50" height="50" relative="1" as="geometry">
            <mxPoint x="650" y="750" as="sourcePoint" />
            <mxPoint x="700" y="700" as="targetPoint" />
          </mxGeometry>
        </mxCell>
        <mxCell id="9dfdfNf_DVW52LMWAm_0-33" value="" style="endArrow=none;html=1;rounded=0;entryX=0;entryY=0.5;entryDx=0;entryDy=0;exitX=1;exitY=0.3333333333333333;exitDx=0;exitDy=0;exitPerimeter=0;" edge="1" parent="1" source="9dfdfNf_DVW52LMWAm_0-5" target="9dfdfNf_DVW52LMWAm_0-23">
          <mxGeometry width="50" height="50" relative="1" as="geometry">
            <mxPoint x="650" y="750" as="sourcePoint" />
            <mxPoint x="910" y="645" as="targetPoint" />
          </mxGeometry>
        </mxCell>
        <mxCell id="9dfdfNf_DVW52LMWAm_0-34" value="" style="endArrow=none;html=1;rounded=0;entryX=0;entryY=0.5;entryDx=0;entryDy=0;exitX=1;exitY=0.3333333333333333;exitDx=0;exitDy=0;exitPerimeter=0;" edge="1" parent="1" source="9dfdfNf_DVW52LMWAm_0-5" target="9dfdfNf_DVW52LMWAm_0-24">
          <mxGeometry width="50" height="50" relative="1" as="geometry">
            <mxPoint x="670" y="767" as="sourcePoint" />
            <mxPoint x="920" y="655" as="targetPoint" />
          </mxGeometry>
        </mxCell>
        <mxCell id="9dfdfNf_DVW52LMWAm_0-35" value="" style="endArrow=none;html=1;rounded=0;entryX=0;entryY=0.5;entryDx=0;entryDy=0;exitX=1;exitY=0.3333333333333333;exitDx=0;exitDy=0;exitPerimeter=0;" edge="1" parent="1" source="9dfdfNf_DVW52LMWAm_0-5" target="9dfdfNf_DVW52LMWAm_0-25">
          <mxGeometry width="50" height="50" relative="1" as="geometry">
            <mxPoint x="650" y="750" as="sourcePoint" />
            <mxPoint x="930" y="665" as="targetPoint" />
          </mxGeometry>
        </mxCell>
        <mxCell id="9dfdfNf_DVW52LMWAm_0-36" value="" style="endArrow=none;html=1;rounded=0;entryX=0;entryY=0.5;entryDx=0;entryDy=0;exitX=1;exitY=0.3333333333333333;exitDx=0;exitDy=0;exitPerimeter=0;" edge="1" parent="1" source="9dfdfNf_DVW52LMWAm_0-5" target="9dfdfNf_DVW52LMWAm_0-31">
          <mxGeometry width="50" height="50" relative="1" as="geometry">
            <mxPoint x="690" y="787" as="sourcePoint" />
            <mxPoint x="940" y="675" as="targetPoint" />
          </mxGeometry>
        </mxCell>
        <mxCell id="9dfdfNf_DVW52LMWAm_0-37" value="" style="endArrow=none;html=1;rounded=0;entryX=0;entryY=0.5;entryDx=0;entryDy=0;exitX=1;exitY=0.3333333333333333;exitDx=0;exitDy=0;exitPerimeter=0;" edge="1" parent="1" source="9dfdfNf_DVW52LMWAm_0-5" target="9dfdfNf_DVW52LMWAm_0-22">
          <mxGeometry width="50" height="50" relative="1" as="geometry">
            <mxPoint x="700" y="797" as="sourcePoint" />
            <mxPoint x="950" y="685" as="targetPoint" />
          </mxGeometry>
        </mxCell>
        <mxCell id="9dfdfNf_DVW52LMWAm_0-38" value="" style="endArrow=none;html=1;rounded=0;entryX=0;entryY=0.3333333333333333;entryDx=0;entryDy=0;exitX=1;exitY=0.5;exitDx=0;exitDy=0;entryPerimeter=0;" edge="1" parent="1" source="9dfdfNf_DVW52LMWAm_0-31" target="9dfdfNf_DVW52LMWAm_0-6">
          <mxGeometry width="50" height="50" relative="1" as="geometry">
            <mxPoint x="710" y="807" as="sourcePoint" />
            <mxPoint x="960" y="695" as="targetPoint" />
          </mxGeometry>
        </mxCell>
        <mxCell id="9dfdfNf_DVW52LMWAm_0-39" value="" style="endArrow=none;html=1;rounded=0;entryX=0;entryY=0.3333333333333333;entryDx=0;entryDy=0;exitX=1;exitY=0.5;exitDx=0;exitDy=0;entryPerimeter=0;" edge="1" parent="1" source="9dfdfNf_DVW52LMWAm_0-22" target="9dfdfNf_DVW52LMWAm_0-6">
          <mxGeometry width="50" height="50" relative="1" as="geometry">
            <mxPoint x="1030" y="895" as="sourcePoint" />
            <mxPoint x="1300" y="917" as="targetPoint" />
          </mxGeometry>
        </mxCell>
        <mxCell id="9dfdfNf_DVW52LMWAm_0-40" value="" style="endArrow=none;html=1;rounded=0;entryX=0;entryY=0.3333333333333333;entryDx=0;entryDy=0;exitX=1;exitY=0.5;exitDx=0;exitDy=0;entryPerimeter=0;" edge="1" parent="1" source="9dfdfNf_DVW52LMWAm_0-26" target="9dfdfNf_DVW52LMWAm_0-6">
          <mxGeometry width="50" height="50" relative="1" as="geometry">
            <mxPoint x="1040" y="905" as="sourcePoint" />
            <mxPoint x="1310" y="927" as="targetPoint" />
          </mxGeometry>
        </mxCell>
        <mxCell id="9dfdfNf_DVW52LMWAm_0-41" value="" style="endArrow=none;html=1;rounded=0;entryX=0;entryY=0.3333333333333333;entryDx=0;entryDy=0;exitX=1;exitY=0.5;exitDx=0;exitDy=0;entryPerimeter=0;" edge="1" parent="1" source="9dfdfNf_DVW52LMWAm_0-28" target="9dfdfNf_DVW52LMWAm_0-6">
          <mxGeometry width="50" height="50" relative="1" as="geometry">
            <mxPoint x="1050" y="915" as="sourcePoint" />
            <mxPoint x="1320" y="937" as="targetPoint" />
          </mxGeometry>
        </mxCell>
        <mxCell id="9dfdfNf_DVW52LMWAm_0-42" value="" style="endArrow=none;html=1;rounded=0;entryX=0;entryY=0.3333333333333333;entryDx=0;entryDy=0;exitX=1;exitY=0.5;exitDx=0;exitDy=0;entryPerimeter=0;" edge="1" parent="1" source="9dfdfNf_DVW52LMWAm_0-29" target="9dfdfNf_DVW52LMWAm_0-6">
          <mxGeometry width="50" height="50" relative="1" as="geometry">
            <mxPoint x="1060" y="925" as="sourcePoint" />
            <mxPoint x="1330" y="947" as="targetPoint" />
          </mxGeometry>
        </mxCell>
        <mxCell id="9dfdfNf_DVW52LMWAm_0-43" value="" style="endArrow=none;html=1;rounded=0;entryX=0;entryY=0.3333333333333333;entryDx=0;entryDy=0;exitX=1;exitY=0.5;exitDx=0;exitDy=0;entryPerimeter=0;" edge="1" parent="1" source="9dfdfNf_DVW52LMWAm_0-30" target="9dfdfNf_DVW52LMWAm_0-6">
          <mxGeometry width="50" height="50" relative="1" as="geometry">
            <mxPoint x="1070" y="935" as="sourcePoint" />
            <mxPoint x="1340" y="957" as="targetPoint" />
          </mxGeometry>
        </mxCell>
        <mxCell id="9dfdfNf_DVW52LMWAm_0-44" value="" style="endArrow=none;html=1;rounded=0;entryX=0;entryY=0.5;entryDx=0;entryDy=0;exitX=1;exitY=0.3333333333333333;exitDx=0;exitDy=0;exitPerimeter=0;" edge="1" parent="1" source="9dfdfNf_DVW52LMWAm_0-7" target="9dfdfNf_DVW52LMWAm_0-22">
          <mxGeometry width="50" height="50" relative="1" as="geometry">
            <mxPoint x="660" y="757" as="sourcePoint" />
            <mxPoint x="910" y="955" as="targetPoint" />
          </mxGeometry>
        </mxCell>
        <mxCell id="9dfdfNf_DVW52LMWAm_0-45" value="" style="endArrow=none;html=1;rounded=0;entryX=0;entryY=0.5;entryDx=0;entryDy=0;exitX=1;exitY=0.3333333333333333;exitDx=0;exitDy=0;exitPerimeter=0;" edge="1" parent="1" source="9dfdfNf_DVW52LMWAm_0-7" target="9dfdfNf_DVW52LMWAm_0-26">
          <mxGeometry width="50" height="50" relative="1" as="geometry">
            <mxPoint x="660" y="1077" as="sourcePoint" />
            <mxPoint x="910" y="955" as="targetPoint" />
          </mxGeometry>
        </mxCell>
        <mxCell id="9dfdfNf_DVW52LMWAm_0-46" value="" style="endArrow=none;html=1;rounded=0;entryX=0;entryY=0.5;entryDx=0;entryDy=0;exitX=1;exitY=0.3333333333333333;exitDx=0;exitDy=0;exitPerimeter=0;" edge="1" parent="1" source="9dfdfNf_DVW52LMWAm_0-7" target="9dfdfNf_DVW52LMWAm_0-27">
          <mxGeometry width="50" height="50" relative="1" as="geometry">
            <mxPoint x="670" y="1087" as="sourcePoint" />
            <mxPoint x="920" y="965" as="targetPoint" />
          </mxGeometry>
        </mxCell>
      </root>
    </mxGraphModel>
  </diagram>
</mxfile>
